<svg width="218" height="78" viewBox="0 0 218 78" fill="none" xmlns="http://www.w3.org/2000/svg">
<g clip-path="url(#clip0)">
<path d="M203.828 0.0546875H160.217L151.462 20.115L189.656 20.4429C193.814 20.4429 192.063 25.581 190.093 25.5263C183.691 25.3623 164.923 25.9636 164.923 25.9636C142.597 27.7674 140.956 49.6314 140.956 49.6314L156.551 49.5768L144.622 78H200.982C197.973 77.3988 195.511 77.7267 197.207 71.1675C197.316 70.6756 210.175 38.9727 210.175 38.9727C210.175 38.9727 213.841 30.6644 216.085 24.5424C216.796 22.684 218.055 21.0442 218 16.0154C217.836 5.63002 207.111 0.0546875 203.828 0.0546875ZM183.254 50.9433C183.254 50.9433 178.548 59.3063 172.638 55.3161C166.728 51.2712 170.121 45.9145 170.34 45.5319C170.996 44.4387 172.638 42.5256 174.225 42.0337C176.414 41.3777 187.959 41.9243 187.959 41.9243L183.254 50.9433Z" fill="#2B897E"/>
<path d="M11.052 27.1661C17.1258 13.0638 22.7619 0.218641 22.7619 0.218641H49.4647C49.4647 0.218641 38.4115 29.2978 33.8151 38.59C30.4772 45.3679 30.8055 49.0848 33.6509 52.4737C34.6906 53.7309 41.038 59.9622 47.9325 52.911L69.5465 0H97.1248L76.2769 50.014C76.2769 50.014 75.0184 56.9012 83.1715 55.6987L80.2167 63.4058L74.0334 78C74.0334 78 55.429 78.1093 53.4044 77.5627C51.8723 77.1254 48.5345 76.0322 45.6891 68.3252C44.7589 65.8655 44.0475 61.9846 45.6344 57.9397L41.2021 63.6791C41.2021 63.6791 30.7508 78.492 16.305 77.9454C8.91799 77.6721 -3.5032 70.2929 0.929033 52.3097C2.73476 45.0399 7.2217 35.9664 11.052 27.1661Z" fill="#2B897E"/>
<path d="M109.821 0L87.1125 55.8627C87.1125 55.8627 82.2973 65.7561 86.0181 71.4955C89.739 77.1801 96.0317 77.9454 96.0317 77.9454H140.573L149.492 55.808H123.118C123.118 55.808 117.372 55.4254 119.068 48.9755L139.205 0H109.821Z" fill="#2B897E"/>
</g>
<defs>
<clipPath id="clip0">
<rect width="218" height="78" fill="white"/>
</clipPath>
</defs>
</svg>
