<?xml version="1.0" encoding="utf-8"?>
<!-- Generator: Adobe Illustrator 25.4.1, SVG Export Plug-In . SVG Version: 6.00 Build 0)  -->
<svg version="1.1" id="Layer_1" xmlns="http://www.w3.org/2000/svg" xmlns:xlink="http://www.w3.org/1999/xlink" x="0px" y="0px"
	 viewBox="0 0 920.99 150" style="enable-background:new 0 0 920.99 150;" xml:space="preserve">
<style type="text/css">
	.st0{fill:#F52500;}
	.st1{fill:#1D1D1B;}
</style>
<g>
	<path class="st0" d="M123.3,63.29c-0.75-5.88-5.28-10.74-11.09-11.91c-2.41-0.48-4.73-0.33-6.84,0.31
		c-1.15,0.35-2.4-0.02-3.24-0.87c-1.81-1.81-3.78-3.46-5.89-4.93c-0.89-0.62-1.41-1.66-1.37-2.75c0.03-0.93-0.08-1.9-0.37-2.9
		c-1.09-3.69-4.37-6.46-8.2-6.78c-3.34-0.29-6.36,1.18-8.23,3.58c-0.69,0.88-1.78,1.35-2.89,1.26c-1.16-0.1-2.34-0.15-3.52-0.15
		c-2.49,0-4.93,0.22-7.3,0.63c-1.23,0.21-2.51-0.22-3.28-1.2c-2.84-3.64-7.42-5.86-12.5-5.35c-6.52,0.64-11.83,5.9-12.53,12.41
		c-0.3,2.77,0.21,5.39,1.32,7.68c0.52,1.08,0.36,2.37-0.35,3.33c-1.65,2.23-3.06,4.63-4.26,7.15c-0.05,0.05-0.14,0.22-0.29,0.57
		c-1.32,2.94-4.36,3.52-4.36,3.52l0.01,0C21.23,68.04,16,74.01,16,81.21c0,7.3,5.38,13.33,12.4,14.37l-0.09,0
		c0,0,2.52,0.47,4.27,3.76c0.03,0.05,0.04,0.08,0.07,0.12c0.73,1.56,1.54,3.07,2.45,4.52c0.61,0.98,0.67,2.21,0.2,3.26
		c-0.69,1.53-1,3.27-0.78,5.1c0.5,4.26,3.91,7.77,8.16,8.36c2.24,0.31,4.36-0.15,6.13-1.15c0.96-0.55,2.16-0.56,3.14-0.05
		c2.59,1.34,5.33,2.42,8.19,3.21c1.14,0.32,2.05,1.22,2.34,2.36c1.27,5.01,5.81,8.71,11.21,8.71c5.2,0,9.6-3.43,11.06-8.16l0,0
		c0,0,0.86-3.34,3.69-4.77c0.09-0.04,0.14-0.07,0.2-0.11c2.25-0.97,4.41-2.11,6.44-3.43c0.95-0.62,2.16-0.69,3.2-0.25
		c1.47,0.63,3.13,0.9,4.88,0.69c4.16-0.5,7.56-3.85,8.14-7.99c0.39-2.84-0.49-5.47-2.14-7.43c-1-1.18-2.29-2.1-3.75-2.67
		c-1.72-0.67-3.67-0.88-5.72-0.37c-3.55,0.88-6.34,3.86-6.97,7.46c-0.24,1.35-0.18,2.66,0.12,3.88c0.35,1.43-0.34,2.93-1.6,3.68
		c-1.32,0.78-2.69,1.49-4.11,2.12c-1.44,0.64-3.18,0.21-4.11-1.06c-2.11-2.87-5.5-4.74-9.33-4.74c-4.19,0-7.86,2.23-9.89,5.57
		c-0.85,1.39-2.49,2.12-4.04,1.61c-1.45-0.47-2.87-1.03-4.24-1.66c-1.36-0.63-2.16-2.08-1.94-3.56c0.14-0.92,0.14-1.88-0.01-2.86
		c-0.6-4.02-3.79-7.3-7.79-8.01c-1.36-0.24-2.68-0.19-3.9,0.1c-1.47,0.35-3.01-0.38-3.76-1.7c-0.39-0.7-0.77-1.41-1.12-2.13
		c-0.76-1.58-0.23-3.53,1.25-4.46c4.1-2.57,6.84-7.12,6.84-12.32c0-5.2-2.73-9.75-6.84-12.32c-1.45-0.9-2.09-2.71-1.35-4.25
		c0.79-1.65,1.69-3.23,2.7-4.74c0.86-1.29,2.79-1.84,4.18-1.14c2.17,1.08,4.65,1.61,7.29,1.42c4.88-0.37,9.16-3.47,11.41-7.82
		c1.08-2.09,1.53-4.09,1.55-6.01c0.02-1.74,1.35-3.17,3.08-3.37c1.48-0.18,3-0.27,4.53-0.27c0.55,0,1.09,0.01,1.64,0.04
		c1.51,0.07,2.73,1.18,3.14,2.63c1.12,3.95,4.74,6.84,9.05,6.84c2,0,3.85-0.63,5.37-1.69c1.21-0.84,2.81-0.92,3.98-0.03
		c0.95,0.72,1.87,1.48,2.74,2.28c1.2,1.1,1.29,2.92,0.35,4.26c-1.62,2.28-2.57,5.07-2.57,8.08c0,0.29,0.01,0.58,0.03,0.87
		c0.1,1.49-0.69,2.9-2.07,3.49l-7.39,3.15c-1.34,0.57-2.9,0.23-3.88-0.86c-2.9-3.2-7.24-5.05-12-4.52
		c-5.92,0.66-11.66,6.37-12.33,12.29c-1.01,8.77,6.07,16.16,14.74,15.68c5.21-0.29,9.76-3.67,11.96-8.4
		c1.07-2.28,1.39-4.46,1.25-6.51c-0.1-1.49,0.7-2.88,2.07-3.47l6.64-2.83c2.09-0.89,3.64-0.56,4.62,0.52
		c2.57,2.84,6.27,4.63,10.4,4.63c0.23,0,0.46-0.02,0.69-0.03c1.59-0.08,3.11-0.41,4.52-0.98C120.3,75.88,124.16,69.98,123.3,63.29z"
		/>
	<path class="st1" d="M228.87,86.84h-55.5c0,6.33,1.65,11.54,4.97,15.63c3.6,4.48,8.71,6.72,15.34,6.72
		c9.35,0,15.48-4.19,18.4-12.56h15.77c-1.75,8.08-5.77,14.39-12.05,18.91c-6.28,4.53-13.66,6.79-22.13,6.79
		c-11.59,0-20.64-3.65-27.17-10.95c-6.52-7.3-9.79-16.89-9.79-28.77c0-11.1,3.26-20.45,9.79-28.04
		c6.91-7.89,15.82-11.83,26.73-11.83c10.61,0,19.33,3.9,26.14,11.68c6.52,7.3,9.79,16.26,9.79,26.87
		C229.17,83.14,229.07,84.99,228.87,86.84z M173.37,75.88h38.85c-0.29-5.55-2.17-10.27-5.62-14.17c-3.46-3.89-7.91-5.84-13.36-5.84
		c-5.65,0-10.32,1.9-14.02,5.7C175.51,65.37,173.57,70.14,173.37,75.88z"/>
	<path class="st1" d="M237.49,96.04h16.65c0.78,8.76,6.47,13.15,17.09,13.15c11.49,0,17.09-3.31,16.8-9.93
		c-0.2-4.67-4.58-8.03-13.15-10.08c-14.31-3.51-22.05-5.55-23.22-6.13c-8.38-3.7-12.56-9.93-12.56-18.7
		c0-7.5,3.55-13.15,10.66-16.94c5.65-3.12,12.61-4.67,20.89-4.67c8.47,0,15.43,1.75,20.89,5.26c6.13,4.09,9.69,10.08,10.66,17.97
		h-17.38c-1.27-6.72-6.38-10.08-15.34-10.08c-9.15,0-13.73,2.58-13.73,7.74c0,3.51,2.58,6.18,7.74,8.03
		c0.97,0.39,6.57,1.75,16.8,4.09c7.6,1.75,13.19,3.9,16.8,6.43c5.06,3.7,7.6,8.91,7.6,15.63c0,8.28-3.65,14.61-10.95,18.99
		c-6.13,3.7-13.73,5.55-22.79,5.55c-9.93,0-17.82-2.14-23.66-6.43C240.85,111.23,237.59,104.61,237.49,96.04z"/>
	<path class="st1" d="M452.9,64.64v38.85c0,3.8,1.31,5.7,3.94,5.7c1.56,0,2.92-0.1,4.09-0.29v11.54c-3.6,1.26-7.11,1.9-10.52,1.9
		c-7.4,0-11.68-3.07-12.85-9.2c-6.23,6.13-14.95,9.2-26.14,9.2c-7.3,0-13.29-1.85-17.97-5.55c-5.26-3.99-7.89-9.49-7.89-16.5
		c0-8.37,3.12-14.41,9.35-18.11c3.8-2.24,10.37-4.04,19.72-5.4l15.77-2.34c4.58-1.36,6.86-4.14,6.86-8.33
		c0-6.81-5.21-10.22-15.63-10.22c-10.42,0-15.97,3.99-16.65,11.98h-16.65c0.97-16.75,12.41-25.12,34.32-25.12
		c8.27,0,15.14,1.66,20.59,4.97C449.68,51.59,452.9,57.24,452.9,64.64z M436.25,94.87V82.46c-2.14,1.36-5.26,2.39-9.35,3.07
		c-3.7,0.49-7.4,0.97-11.1,1.46c-9.06,1.56-13.58,5.75-13.58,12.56c0,3.31,1.85,5.84,5.55,7.6c2.82,1.36,6.08,2.04,9.79,2.04
		c4.48,0,8.52-1.07,12.12-3.21C434.06,103.34,436.25,99.64,436.25,94.87z"/>
	<path class="st1" d="M538.49,70.04h-16.65c-1.36-9.44-7.11-14.17-17.23-14.17c-5.55,0-10.08,1.7-13.58,5.11
		c-4.77,4.67-7.16,12.12-7.16,22.35c0,7.11,1.51,13,4.53,17.67c3.6,5.45,8.76,8.18,15.48,8.18c4.87,0,8.88-1.53,12.05-4.6
		c3.16-3.07,5.13-7.28,5.92-12.63h16.65c-3.21,20.25-14.75,30.38-34.62,30.38c-11.49,0-20.55-3.75-27.17-11.25
		c-6.33-7.01-9.49-16.26-9.49-27.75c0-11.98,3.12-21.62,9.35-28.92c6.62-7.79,15.92-11.68,27.9-11.68c9.25,0,16.89,2.24,22.93,6.72
		C534.01,54.32,537.71,61.18,538.49,70.04z"/>
	<path class="st1" d="M552.51,31.77V16h16.65v15.77H552.51z M552.51,120.29V44.77h16.65v75.51H552.51z"/>
	<path class="st1" d="M621.89,122.33c-11.88,0-21.28-3.75-28.19-11.25c-6.62-7.2-9.93-16.75-9.93-28.63
		c0-11.78,3.38-21.35,10.15-28.7c6.77-7.35,16.09-11.03,27.97-11.03c11.88,0,21.27,3.75,28.19,11.25c6.62,7.21,9.93,16.7,9.93,28.48
		c0,11.88-3.31,21.42-9.93,28.63C643.16,118.58,633.77,122.33,621.89,122.33z M621.89,109.19c7.01,0,12.46-2.82,16.36-8.47
		c3.41-4.87,5.11-10.95,5.11-18.26c0-7.2-1.7-13.24-5.11-18.11c-3.9-5.65-9.35-8.47-16.36-8.47s-12.47,2.83-16.36,8.47
		c-3.41,4.87-5.11,10.91-5.11,18.11c0,7.3,1.7,13.39,5.11,18.26C609.42,106.36,614.88,109.19,621.89,109.19z"/>
	<g>
		<path class="st1" d="M315.98,120.29V44.75h36.7c9.85,0,15.93,3.4,20.42,8.97c3.26,4.06,5.97,11.61,5.97,17.98
			c0,6.3-1.63,12.49-4.89,16.47c-4.49,5.58-11.66,8.36-21.5,8.36h-20.1v23.75H315.98z M332.58,58.01V82.2h19.44
			c2.99,0,5.63-0.57,7.54-2.14c2.57-2.1,3.68-5.47,3.68-9c0-6.73-3.68-13.05-11.05-13.05H332.58z"/>
	</g>
	<path class="st0" d="M700.91,113.45c-5.07-5.14-7.61-12.71-7.61-22.71V44.77h8.68v46.71c0,7.36,1.8,12.89,5.41,16.61
		c3.61,3.71,8.91,5.57,15.91,5.57c7,0,12.28-1.85,15.86-5.57c3.57-3.71,5.36-9.25,5.36-16.61V44.77h8.79v45.96
		c0,9.93-2.55,17.48-7.66,22.66c-5.11,5.18-12.55,7.77-22.34,7.77C713.45,121.16,705.99,118.59,700.91,113.45z"/>
	<path class="st0" d="M796.2,120.3V52.27h-26.25v-7.5h61.49v7.5H805.1v68.03H796.2z"/>
	<path class="st0" d="M860.63,116.5c-5.29-3.11-9.34-7.57-12.16-13.39c-2.82-5.82-4.23-12.69-4.23-20.62s1.41-14.78,4.23-20.57
		c2.82-5.79,6.87-10.23,12.16-13.34c5.28-3.11,11.5-4.66,18.64-4.66c5.21,0,10,0.8,14.36,2.41c4.36,1.61,8.14,3.98,11.36,7.13
		l-3.32,6.75c-3.64-3.07-7.22-5.28-10.72-6.64c-3.5-1.36-7.36-2.04-11.57-2.04c-8.29,0-14.7,2.7-19.23,8.09
		c-4.54,5.39-6.8,13.02-6.8,22.87c0,9.93,2.27,17.59,6.8,22.98c4.53,5.39,10.94,8.09,19.23,8.09c4.21,0,8.07-0.68,11.57-2.04
		c3.5-1.35,7.07-3.57,10.72-6.64l3.32,6.75c-3.21,3.14-7,5.52-11.36,7.12c-4.36,1.61-9.14,2.41-14.36,2.41
		C872.13,121.16,865.92,119.6,860.63,116.5z"/>
</g>
</svg>
