<svg width="214" height="188" viewBox="0 0 214 188" fill="none" xmlns="http://www.w3.org/2000/svg">
<g clip-path="url(#clip0)">
<path d="M-2.9783e-05 37.4143H30.1152V39.3744C30.1152 69.2233 30.1152 99.0723 30.1152 128.921C30.1152 130.331 30.1839 131.707 30.3212 133.117C30.8363 137.931 33.5834 140.819 38.3565 141.37C41.7904 141.748 45.2243 141.438 48.5552 140.338C49.7914 139.925 50.3064 139.341 50.3064 137.896C50.2378 111.005 50.2721 84.1134 50.2721 57.1875V55.193H80.2843V159.871C79.8722 159.905 79.4602 159.974 79.0138 159.974C71.6652 159.974 64.3511 159.939 57.0025 160.008C55.9724 160.008 55.4916 159.699 55.1826 158.736C54.7018 157.291 54.0837 155.881 53.603 154.54C42.8549 161.693 31.214 162.828 19.0924 160.283C9.13412 158.185 3.39952 151.514 1.4422 141.748C0.549393 137.381 0.137326 132.841 0.102987 128.371C-0.0343687 98.5221 -2.9783e-05 68.7075 -2.9783e-05 38.9274V37.4143Z" fill="#002D5D"/>
<path d="M94.535 52.5795H50.7529V37.3455H94.5006V0H124.925V37.3111H146.799V52.6826H124.994V54.5052C124.994 79.1615 124.959 103.818 125.062 128.44C125.062 131.431 125.612 134.492 126.298 137.415C126.814 139.753 128.462 141.404 130.934 141.782C135.364 142.436 139.828 142.952 144.258 143.502C144.773 143.571 145.322 143.502 145.94 143.502V159.733C145.734 159.802 145.494 159.905 145.254 159.905C136.634 159.836 127.981 159.974 119.362 159.63C113.078 159.389 107.172 157.429 102.399 153.062C98.1062 149.141 96.0459 144.018 95.2217 138.447C94.7753 135.455 94.6036 132.394 94.6036 129.334C94.5693 104.437 94.5693 79.5398 94.5693 54.6428V52.5795H94.535Z" fill="#E14504"/>
<path d="M189.001 129.575H211.356C211.15 132.016 211.047 134.458 210.703 136.83C209.57 144.705 206.514 151.514 199.475 155.916C195.903 158.151 192.023 159.492 187.902 160.18C181.309 161.28 174.682 161.556 168.123 159.939C158.474 157.532 151.847 151.377 147.28 142.78C143.125 134.939 141.167 126.445 140.068 117.745C138.66 106.706 138.523 95.599 139.485 84.5261C140.412 74.0721 142.369 63.8244 147.451 54.4708C154.079 42.263 164.483 36.2795 178.253 35.8668C183.747 35.6949 189.139 36.2107 194.324 38.1021C204.66 41.8847 210.36 49.6221 212.489 60.1449C213.279 64.0995 213.519 68.1229 214.034 72.2839H187.319C187.284 71.768 187.25 71.2178 187.216 70.6332C186.907 67.16 186.769 63.6524 186.254 60.2136C185.842 57.3938 184.297 55.2617 181.275 54.7459C178.013 54.1957 175.3 55.5712 173.617 58.4942C172.038 61.2453 171.523 64.3058 171.282 67.4008C169.565 87.4147 169.703 107.463 171.042 127.477C171.248 130.641 171.866 133.839 172.862 136.83C174.304 141.026 177.978 142.78 182.34 141.989C184.778 141.542 186.632 140.2 187.353 137.793C188.04 135.455 188.418 133.048 188.898 130.641C188.898 130.297 188.933 129.953 189.001 129.575Z" fill="#002D5D"/>
<path d="M13.4951 183.048C13.4951 183.53 13.4608 184.045 13.3921 184.63C13.3234 185.215 13.1174 185.73 12.8084 186.246C12.4993 186.762 12.0186 187.175 11.3661 187.519C10.7137 187.862 9.85521 188.034 8.72203 188.034C7.7262 188.034 6.90207 187.862 6.31831 187.519C5.73454 187.175 5.28814 186.762 4.97909 186.246C4.67004 185.73 4.464 185.215 4.36099 184.63C4.25797 184.045 4.22363 183.53 4.22363 183.048V173.076H5.8719V182.739C5.8719 183.151 5.90624 183.598 5.94058 184.045C5.97492 184.492 6.11227 184.939 6.28397 185.318C6.45566 185.696 6.76471 186.006 7.14244 186.281C7.52017 186.521 8.06959 186.659 8.75637 186.659C9.51182 186.659 10.1299 186.521 10.542 186.281C10.9541 186.04 11.2631 185.73 11.4348 185.318C11.6408 184.939 11.7439 184.527 11.7782 184.045C11.8125 183.598 11.8125 183.151 11.8125 182.739V173.076H13.4608V183.048H13.4951Z" fill="#002D5D"/>
<path d="M16.7573 177.615H18.1996V179.953H18.2339C18.3026 179.747 18.4056 179.472 18.5429 179.197C18.6803 178.921 18.852 178.612 19.0924 178.337C19.3327 178.062 19.6418 177.821 20.0195 177.649C20.3972 177.443 20.878 177.374 21.4274 177.374C21.8395 177.374 22.2172 177.443 22.5606 177.615C22.904 177.787 23.1444 178.027 23.3847 178.303C23.5908 178.578 23.7625 178.922 23.8655 179.3C23.9685 179.678 24.0372 180.091 24.0372 180.503V187.759H22.5949V182.12C22.5949 181.673 22.5949 181.26 22.5606 180.847C22.5606 180.435 22.4919 180.091 22.3889 179.781C22.2859 179.472 22.1485 179.231 21.9425 179.059C21.7365 178.887 21.4618 178.784 21.084 178.784C20.6033 178.784 20.1912 178.956 19.8135 179.265C19.4701 179.609 19.161 179.988 18.9207 180.469C18.6803 180.95 18.5086 181.466 18.3713 182.016C18.2339 182.567 18.1996 183.082 18.1996 183.53V187.725H16.7573V177.615Z" fill="#002D5D"/>
<path d="M27.2307 173.041H29.1537V174.967H27.2307V173.041ZM27.4367 177.615H28.879V187.759H27.4367V177.615Z" fill="#002D5D"/>
<path d="M30.8019 177.615H32.3815L35.369 185.662H35.4034L38.0131 177.615H39.5584L36.1245 187.794H34.6479L30.8019 177.615Z" fill="#002D5D"/>
<path d="M47.9027 187.725C47.2503 187.931 46.4948 188.034 45.5677 188.034C43.9881 188.034 42.7862 187.553 41.9277 186.624C41.0693 185.696 40.6229 184.286 40.6229 182.36C40.6229 181.604 40.6915 180.916 40.8632 180.297C41.0349 179.678 41.2753 179.162 41.5844 178.715C41.9277 178.268 42.3398 177.959 42.8206 177.718C43.3013 177.477 43.9194 177.374 44.6062 177.374C45.1899 177.374 45.705 177.477 46.1514 177.649C46.5978 177.855 46.9756 178.096 47.2503 178.474C47.5593 178.818 47.7654 179.231 47.9027 179.712C48.0401 180.194 48.1087 180.71 48.1087 181.26V181.741H42.2711V182.326C42.2711 182.704 42.3055 183.151 42.4085 183.667C42.5115 184.183 42.6832 184.664 42.9579 185.146C43.2326 185.593 43.6103 186.005 44.0568 186.315C44.5375 186.624 45.1213 186.796 45.8424 186.796C46.1171 186.796 46.3575 186.796 46.5635 186.762C46.7695 186.728 46.9412 186.728 47.0786 186.693C47.2159 186.659 47.3533 186.624 47.4906 186.624C47.628 186.59 47.731 186.556 47.834 186.556V187.725H47.9027ZM46.4948 180.538C46.4948 180.366 46.4605 180.159 46.3918 179.953C46.3231 179.747 46.2201 179.506 46.0827 179.334C45.9454 179.128 45.7394 178.956 45.499 178.818C45.2586 178.681 44.9496 178.612 44.5718 178.612C44.1941 178.612 43.8507 178.681 43.6103 178.818C43.37 178.956 43.1296 179.128 42.9922 179.334C42.8206 179.54 42.7175 179.747 42.6145 179.953C42.5458 180.159 42.4772 180.366 42.4428 180.538H46.4948Z" fill="#002D5D"/>
<path d="M50.6841 177.615H52.1264V179.575H52.1607C52.2294 179.403 52.3324 179.197 52.5041 178.956C52.6415 178.715 52.8475 178.474 53.1222 178.234C53.3626 177.993 53.706 177.787 54.118 177.649C54.5301 177.477 55.0108 177.408 55.5946 177.408V178.956C55.0108 178.956 54.4958 179.059 54.0837 179.3C53.6716 179.541 53.2939 179.85 53.0192 180.263C52.7445 180.675 52.5384 181.157 52.3667 181.741C52.2294 182.326 52.1607 182.945 52.1607 183.633V187.828H50.7185V177.615H50.6841Z" fill="#002D5D"/>
<path d="M60.5394 182.051C60.8141 182.188 61.0888 182.326 61.3636 182.498C61.6383 182.67 61.8786 182.842 62.119 183.048C62.3594 183.254 62.5311 183.53 62.6684 183.839C62.8058 184.148 62.9088 184.527 62.9088 184.974C62.9088 186.005 62.5654 186.762 61.913 187.278C61.2605 187.794 60.3334 188.034 59.1315 188.034C58.4791 188.034 57.8953 187.966 57.3803 187.862C56.8995 187.759 56.5561 187.656 56.3501 187.587V186.281C56.4188 186.315 56.5218 186.349 56.6935 186.418C56.8652 186.487 57.0712 186.521 57.3116 186.59C57.552 186.659 57.8267 186.693 58.1014 186.762C58.3761 186.796 58.6851 186.831 58.9598 186.831C59.3032 186.831 59.6466 186.796 59.9557 186.728C60.2647 186.659 60.5051 186.556 60.7455 186.453C60.9515 186.315 61.1232 186.143 61.2605 185.937C61.3979 185.73 61.4666 185.49 61.4666 185.18C61.4666 184.939 61.3979 184.699 61.2605 184.492C61.1232 184.286 60.9515 184.149 60.7798 183.977C60.5738 183.839 60.4021 183.701 60.1617 183.598C59.9557 183.495 59.784 183.392 59.6123 183.323L58.6851 182.842C58.4448 182.704 58.2044 182.567 57.9297 182.429C57.655 182.292 57.4146 182.085 57.1742 181.879C56.9339 181.673 56.7622 181.432 56.5905 181.122C56.4531 180.847 56.3501 180.469 56.3501 180.056C56.3501 179.231 56.6591 178.578 57.2429 178.096C57.8267 177.615 58.6851 177.374 59.8183 177.374C60.3677 177.374 60.8141 177.408 61.2262 177.512C61.6383 177.58 61.9473 177.684 62.1877 177.718V179.059C62.016 178.99 61.7069 178.887 61.2605 178.784C60.8141 178.646 60.3334 178.612 59.8183 178.612C59.2002 178.612 58.6851 178.75 58.3417 178.99C57.964 179.231 57.7923 179.575 57.7923 179.919C57.7923 180.125 57.861 180.297 57.964 180.469C58.067 180.607 58.2387 180.744 58.4104 180.882C58.5821 180.985 58.7882 181.122 58.9942 181.226C59.2002 181.329 59.4406 181.432 59.6123 181.535L60.5394 182.051Z" fill="#002D5D"/>
<path d="M64.9692 173.041H66.8922V174.967H64.9692V173.041ZM65.2095 177.615H66.6518V187.759H65.2095V177.615Z" fill="#002D5D"/>
<path d="M75.5112 186.04H75.4768C75.4081 186.212 75.3395 186.418 75.2021 186.659C75.0648 186.9 74.8931 187.106 74.687 187.312C74.481 187.519 74.2063 187.69 73.8972 187.828C73.5882 187.966 73.2448 188.034 72.8327 188.034C72.2146 188.034 71.6995 187.897 71.2531 187.656C70.8067 187.415 70.4633 187.071 70.1886 186.624C69.9139 186.177 69.7079 185.627 69.5705 184.974C69.4332 184.32 69.3645 183.598 69.3645 182.807C69.3645 182.12 69.4332 181.466 69.5705 180.813C69.7079 180.159 69.9139 179.575 70.1886 179.093C70.4633 178.578 70.8067 178.199 71.2531 177.89C71.6995 177.58 72.2146 177.443 72.8327 177.443C73.2791 177.443 73.6569 177.512 73.9659 177.649C74.275 177.787 74.5497 177.924 74.7557 178.131C74.9617 178.337 75.1334 178.543 75.2365 178.75C75.3395 178.956 75.4425 179.162 75.5112 179.369H75.5455V173.144H76.9877V187.862H75.5455V186.04H75.5112ZM71.0128 183.048C71.0128 183.392 71.0471 183.736 71.0814 184.183C71.1158 184.596 71.2188 185.008 71.3562 185.386C71.4935 185.765 71.6995 186.109 71.9743 186.384C72.249 186.659 72.6267 186.796 73.1074 186.796C73.5195 186.796 73.8629 186.659 74.1719 186.418C74.481 186.177 74.7214 185.834 74.9274 185.421C75.1334 185.008 75.2708 184.596 75.3395 184.114C75.4425 183.633 75.4768 183.186 75.4768 182.739C75.4768 182.154 75.4425 181.638 75.3395 181.122C75.2364 180.641 75.0991 180.194 74.8931 179.816C74.687 179.437 74.4467 179.128 74.1719 178.921C73.8972 178.715 73.5538 178.578 73.1761 178.578C72.7641 178.578 72.3863 178.715 72.1116 178.99C71.8369 179.265 71.5965 179.609 71.4592 180.022C71.2875 180.435 71.1845 180.916 71.1158 181.466C71.0471 181.982 71.0128 182.532 71.0128 183.048Z" fill="#002D5D"/>
<path d="M85.3321 186.418H85.2978C85.2291 186.556 85.1261 186.693 84.9544 186.865C84.7827 187.037 84.5767 187.209 84.3363 187.381C84.0959 187.553 83.7869 187.691 83.4091 187.794C83.0657 187.897 82.6537 187.966 82.1729 187.966C81.3488 187.966 80.662 187.725 80.1813 187.243C79.7005 186.762 79.4601 186.04 79.4601 185.146C79.4601 184.561 79.6318 184.045 79.9752 183.667C80.3186 183.254 80.7307 182.945 81.2114 182.704C81.6922 182.464 82.2416 182.292 82.791 182.154C83.3405 182.051 83.8555 181.982 84.3019 181.982C84.4736 181.982 84.6453 181.982 84.817 181.982C84.9887 181.982 85.1261 181.948 85.2978 181.913V181.432C85.2978 181.26 85.2978 181.054 85.2978 180.882C85.2978 180.675 85.2978 180.503 85.2634 180.366C85.2634 180.194 85.2291 180.091 85.2291 179.988C85.1604 179.712 85.0917 179.472 84.9544 179.3C84.817 179.128 84.6797 178.99 84.508 178.887C84.3363 178.784 84.1646 178.715 83.9586 178.646C83.7525 178.612 83.5808 178.578 83.3748 178.578C82.9627 178.578 82.6193 178.612 82.379 178.715C82.1386 178.818 81.9326 178.922 81.7609 179.093C81.6235 179.265 81.5205 179.437 81.4518 179.609C81.3831 179.816 81.3488 179.988 81.3145 180.194H79.6662C79.6662 179.884 79.7349 179.541 79.8379 179.197C79.9409 178.853 80.1469 178.543 80.456 178.268C80.7307 177.993 81.1084 177.787 81.5892 177.58C82.0356 177.408 82.6193 177.305 83.3405 177.305C84.1302 177.305 84.7484 177.408 85.1948 177.649C85.6412 177.856 85.9846 178.131 86.2249 178.475C86.4653 178.818 86.6027 179.162 86.6713 179.541C86.74 179.919 86.74 180.263 86.74 180.572V187.691H85.3321V186.418ZM84.4393 183.186C84.1646 183.186 83.8555 183.22 83.4778 183.289C83.1001 183.358 82.7223 183.461 82.379 183.633C82.0356 183.805 81.7265 184.011 81.4861 184.286C81.2458 184.561 81.1084 184.939 81.1084 185.352C81.1084 185.834 81.2458 186.212 81.5548 186.453C81.8295 186.693 82.1729 186.831 82.5507 186.831C82.9971 186.831 83.4435 186.693 83.9242 186.418C84.3706 186.143 84.714 185.765 84.92 185.249C84.9887 185.111 85.0231 184.974 85.0917 184.871C85.1261 184.733 85.1948 184.63 85.2291 184.458C85.2634 184.32 85.2978 184.149 85.2978 183.942C85.2978 183.736 85.3321 183.495 85.3321 183.186H84.4393Z" fill="#002D5D"/>
<path d="M95.4277 186.04H95.3933C95.3247 186.212 95.256 186.418 95.1186 186.659C94.9813 186.9 94.8096 187.106 94.6035 187.312C94.3975 187.519 94.1228 187.69 93.8138 187.828C93.5047 187.966 93.1613 188.034 92.7492 188.034C92.1311 188.034 91.6161 187.897 91.1696 187.656C90.7232 187.415 90.3799 187.071 90.1051 186.624C89.8304 186.177 89.6244 185.627 89.487 184.974C89.3497 184.32 89.281 183.598 89.281 182.807C89.281 182.12 89.3497 181.466 89.487 180.813C89.6244 180.159 89.8304 179.575 90.1051 179.093C90.3799 178.578 90.7232 178.199 91.1696 177.89C91.6161 177.58 92.1311 177.443 92.7492 177.443C93.1956 177.443 93.5734 177.512 93.8824 177.649C94.1915 177.787 94.4662 177.924 94.6722 178.131C94.8783 178.337 95.05 178.543 95.153 178.75C95.256 178.956 95.359 179.162 95.4277 179.369H95.462V173.144H96.9043V187.862H95.462V186.04H95.4277ZM90.9293 183.048C90.9293 183.392 90.9636 183.736 90.998 184.183C91.0323 184.596 91.1353 185.008 91.2727 185.386C91.41 185.765 91.6161 186.109 91.8908 186.384C92.1655 186.659 92.5432 186.796 93.024 186.796C93.436 186.796 93.7794 186.659 94.0885 186.418C94.3975 186.177 94.6379 185.834 94.8439 185.421C95.05 185.008 95.1873 184.596 95.256 184.114C95.359 183.633 95.3933 183.186 95.3933 182.739C95.3933 182.154 95.359 181.638 95.256 181.122C95.153 180.641 95.0156 180.194 94.8096 179.816C94.6035 179.437 94.3632 179.128 94.0885 178.921C93.8137 178.715 93.4704 178.578 93.0926 178.578C92.6806 178.578 92.3028 178.715 92.0281 178.99C91.7534 179.265 91.513 179.609 91.3757 180.022C91.204 180.435 91.101 180.916 91.0323 181.466C90.9636 181.982 90.9293 182.532 90.9293 183.048Z" fill="#002D5D"/>
<path d="M107.378 174.451H103.875V173.041H112.563V174.451H109.026V187.794H107.378V174.451Z" fill="#002D5D"/>
<path d="M114.142 177.615H115.585V179.575H115.619C115.688 179.403 115.791 179.197 115.962 178.956C116.1 178.715 116.306 178.474 116.581 178.234C116.821 177.993 117.164 177.787 117.576 177.649C117.988 177.477 118.469 177.408 119.053 177.408V178.956C118.469 178.956 117.954 179.059 117.542 179.3C117.13 179.541 116.752 179.85 116.478 180.263C116.203 180.675 115.997 181.157 115.825 181.741C115.688 182.326 115.619 182.945 115.619 183.633V187.828H114.177V177.615H114.142Z" fill="#002D5D"/>
<path d="M127.329 187.725C126.676 187.931 125.921 188.034 124.994 188.034C123.414 188.034 122.212 187.553 121.354 186.624C120.495 185.696 120.049 184.286 120.049 182.36C120.049 181.604 120.117 180.916 120.289 180.297C120.461 179.678 120.701 179.162 121.01 178.715C121.354 178.268 121.731 177.959 122.246 177.718C122.727 177.477 123.345 177.374 124.032 177.374C124.616 177.374 125.131 177.477 125.577 177.649C126.024 177.855 126.401 178.096 126.676 178.474C126.985 178.818 127.191 179.231 127.329 179.712C127.466 180.194 127.535 180.71 127.535 181.26V181.741H121.697V182.326C121.697 182.704 121.731 183.151 121.834 183.667C121.937 184.183 122.109 184.664 122.384 185.146C122.659 185.593 123.036 186.005 123.483 186.315C123.963 186.624 124.547 186.796 125.268 186.796C125.543 186.796 125.783 186.796 125.989 186.762C126.195 186.728 126.367 186.728 126.504 186.693C126.642 186.659 126.779 186.624 126.917 186.624C127.054 186.59 127.157 186.556 127.26 186.556V187.725H127.329ZM125.886 180.538C125.886 180.366 125.852 180.159 125.783 179.953C125.715 179.747 125.612 179.506 125.474 179.334C125.337 179.128 125.131 178.956 124.891 178.818C124.65 178.681 124.341 178.612 123.963 178.612C123.586 178.612 123.277 178.681 123.002 178.818C122.762 178.956 122.521 179.128 122.384 179.334C122.212 179.54 122.109 179.747 122.006 179.953C121.937 180.159 121.869 180.366 121.834 180.538H125.886Z" fill="#002D5D"/>
<path d="M133.372 182.051C133.647 182.188 133.922 182.326 134.196 182.498C134.471 182.67 134.711 182.842 134.952 183.048C135.192 183.254 135.364 183.53 135.501 183.839C135.639 184.148 135.742 184.527 135.742 184.974C135.742 186.005 135.398 186.762 134.746 187.278C134.093 187.794 133.166 188.034 131.964 188.034C131.312 188.034 130.728 187.966 130.213 187.862C129.732 187.759 129.389 187.656 129.183 187.587V186.281C129.252 186.315 129.355 186.349 129.526 186.418C129.698 186.487 129.904 186.521 130.144 186.59C130.385 186.659 130.659 186.693 130.934 186.762C131.209 186.796 131.518 186.831 131.793 186.831C132.136 186.831 132.479 186.796 132.788 186.728C133.098 186.659 133.338 186.556 133.578 186.453C133.784 186.315 133.956 186.143 134.093 185.937C134.231 185.73 134.299 185.49 134.299 185.18C134.299 184.939 134.231 184.699 134.093 184.492C133.956 184.286 133.784 184.149 133.613 183.977C133.407 183.839 133.201 183.701 132.995 183.598C132.788 183.495 132.617 183.392 132.445 183.323L131.518 182.842C131.278 182.704 131.037 182.567 130.762 182.429C130.488 182.292 130.247 182.085 130.007 181.879C129.767 181.673 129.595 181.432 129.423 181.122C129.286 180.847 129.183 180.469 129.183 180.056C129.183 179.231 129.492 178.578 130.076 178.096C130.659 177.615 131.518 177.374 132.651 177.374C133.201 177.374 133.647 177.408 134.059 177.512C134.471 177.58 134.78 177.684 135.021 177.718V179.059C134.849 178.99 134.54 178.887 134.093 178.784C133.647 178.646 133.166 178.612 132.651 178.612C132.033 178.612 131.518 178.75 131.175 178.99C130.797 179.231 130.625 179.575 130.625 179.919C130.625 180.125 130.694 180.297 130.797 180.469C130.9 180.607 131.072 180.744 131.243 180.882C131.415 180.985 131.621 181.122 131.827 181.226C132.033 181.329 132.239 181.432 132.445 181.535L133.372 182.051Z" fill="#002D5D"/>
<path d="M152.224 187.14C152.053 187.209 151.881 187.278 151.675 187.381C151.469 187.484 151.194 187.553 150.885 187.656C150.576 187.759 150.198 187.828 149.786 187.897C149.374 187.966 148.893 188 148.344 188C147.245 188 146.318 187.759 145.597 187.278C144.876 186.796 144.292 186.177 143.846 185.421C143.434 184.664 143.124 183.805 142.953 182.876C142.781 181.948 142.712 181.019 142.712 180.125C142.712 179.162 142.815 178.268 142.987 177.374C143.159 176.48 143.468 175.723 143.914 175.036C144.326 174.348 144.91 173.832 145.631 173.419C146.352 173.007 147.211 172.8 148.275 172.8C149.031 172.8 149.683 172.904 150.233 173.144C150.816 173.351 151.263 173.66 151.675 174.038C152.053 174.417 152.362 174.864 152.533 175.38C152.739 175.895 152.842 176.446 152.842 177.065H150.954C150.954 176.239 150.713 175.551 150.267 175.001C149.821 174.451 149.134 174.176 148.275 174.176C147.486 174.176 146.867 174.348 146.387 174.726C145.906 175.104 145.528 175.551 145.253 176.136C144.979 176.721 144.807 177.374 144.704 178.062C144.601 178.784 144.567 179.506 144.567 180.194C144.567 180.607 144.601 181.054 144.635 181.535C144.67 182.016 144.773 182.498 144.876 182.945C144.979 183.426 145.15 183.873 145.356 184.32C145.563 184.768 145.803 185.146 146.112 185.49C146.421 185.834 146.799 186.109 147.245 186.315C147.692 186.521 148.207 186.624 148.825 186.624C149.305 186.624 149.718 186.59 150.095 186.487C150.473 186.384 150.816 186.281 151.091 186.143C151.366 186.005 151.641 185.868 151.847 185.73C152.053 185.593 152.224 185.49 152.327 185.386V187.14H152.224Z" fill="#002D5D"/>
<path d="M160.328 185.421H160.294C160.225 185.627 160.122 185.902 160.019 186.177C159.882 186.453 159.71 186.762 159.47 187.037C159.229 187.312 158.92 187.553 158.543 187.725C158.165 187.931 157.684 188 157.135 188C156.688 188 156.311 187.931 155.967 187.759C155.624 187.587 155.383 187.347 155.143 187.071C154.937 186.796 154.765 186.453 154.662 186.074C154.559 185.696 154.491 185.283 154.491 184.871V177.615H155.933V183.254C155.933 183.701 155.933 184.114 155.967 184.527C155.967 184.939 156.036 185.283 156.139 185.593C156.242 185.902 156.379 186.143 156.585 186.315C156.791 186.487 157.066 186.59 157.444 186.59C157.925 186.59 158.337 186.418 158.714 186.109C159.058 185.799 159.367 185.386 159.607 184.905C159.847 184.424 160.019 183.908 160.157 183.358C160.294 182.807 160.328 182.292 160.328 181.844V177.649H161.77V187.794H160.328V185.421Z" fill="#002D5D"/>
<path d="M166.75 173.041H165.307V187.759H166.75V173.041Z" fill="#002D5D"/>
<path d="M174.991 187.897C174.785 187.931 174.579 187.966 174.339 187.966C174.133 188 173.926 188 173.686 188C172.656 188 171.935 187.794 171.523 187.381C171.111 186.968 170.87 186.281 170.87 185.386V178.818H169.222V177.615H170.87V175.242L172.313 174.313V177.615H175.025V178.818H172.313V185.077C172.313 185.249 172.347 185.421 172.381 185.627C172.416 185.834 172.484 186.005 172.622 186.177C172.725 186.349 172.896 186.487 173.137 186.59C173.343 186.693 173.652 186.762 174.03 186.762C174.27 186.762 174.442 186.728 174.579 186.693C174.716 186.659 174.854 186.624 174.991 186.556V187.897Z" fill="#002D5D"/>
<path d="M182.923 185.421H182.889C182.82 185.627 182.717 185.902 182.614 186.177C182.477 186.453 182.305 186.762 182.065 187.037C181.824 187.312 181.515 187.553 181.138 187.725C180.76 187.931 180.279 188 179.73 188C179.283 188 178.906 187.931 178.562 187.759C178.219 187.587 177.978 187.347 177.738 187.071C177.532 186.796 177.36 186.453 177.257 186.074C177.154 185.696 177.086 185.283 177.086 184.871V177.615H178.528V183.254C178.528 183.701 178.528 184.114 178.562 184.527C178.562 184.939 178.631 185.283 178.734 185.593C178.837 185.902 178.974 186.143 179.18 186.315C179.386 186.487 179.661 186.59 180.039 186.59C180.519 186.59 180.932 186.418 181.309 186.109C181.653 185.799 181.962 185.386 182.202 184.905C182.442 184.424 182.614 183.908 182.751 183.358C182.854 182.807 182.923 182.292 182.923 181.844V177.649H184.365V187.794H182.923V185.421Z" fill="#002D5D"/>
<path d="M187.765 177.615H189.207V179.575H189.242C189.31 179.403 189.413 179.197 189.585 178.956C189.722 178.715 189.928 178.474 190.203 178.234C190.444 177.993 190.787 177.787 191.199 177.649C191.611 177.477 192.092 177.408 192.676 177.408V178.956C192.092 178.956 191.577 179.059 191.165 179.3C190.753 179.541 190.375 179.85 190.1 180.263C189.825 180.675 189.619 181.157 189.448 181.741C189.31 182.326 189.242 182.945 189.242 183.633V187.828H187.799V177.615H187.765Z" fill="#002D5D"/>
<path d="M199.44 186.418H199.406C199.337 186.556 199.234 186.693 199.063 186.865C198.891 187.037 198.685 187.209 198.444 187.381C198.204 187.553 197.895 187.691 197.517 187.794C197.174 187.897 196.762 187.966 196.281 187.966C195.457 187.966 194.77 187.725 194.289 187.243C193.809 186.762 193.568 186.04 193.568 185.146C193.568 184.561 193.74 184.045 194.083 183.667C194.427 183.254 194.839 182.945 195.32 182.704C195.8 182.464 196.35 182.292 196.899 182.154C197.449 182.051 197.964 181.982 198.41 181.982C198.582 181.982 198.753 181.982 198.925 181.982C199.097 181.982 199.234 181.948 199.406 181.913V181.432C199.406 181.26 199.406 181.054 199.406 180.882C199.406 180.675 199.406 180.503 199.372 180.366C199.372 180.194 199.337 180.091 199.337 179.988C199.269 179.712 199.2 179.472 199.063 179.3C198.925 179.128 198.788 178.99 198.616 178.887C198.444 178.784 198.273 178.715 198.067 178.646C197.861 178.612 197.689 178.578 197.483 178.578C197.071 178.578 196.727 178.612 196.487 178.715C196.247 178.818 196.041 178.922 195.869 179.093C195.732 179.265 195.629 179.437 195.56 179.609C195.491 179.816 195.457 179.988 195.423 180.194H193.809C193.809 179.884 193.877 179.541 193.98 179.197C194.083 178.853 194.289 178.543 194.598 178.268C194.873 177.993 195.251 177.787 195.732 177.58C196.178 177.408 196.762 177.305 197.483 177.305C198.273 177.305 198.891 177.408 199.337 177.649C199.784 177.856 200.127 178.131 200.367 178.475C200.608 178.818 200.745 179.162 200.814 179.541C200.883 179.919 200.883 180.263 200.883 180.572V187.691H199.475V186.418H199.44ZM198.547 183.186C198.273 183.186 197.964 183.22 197.586 183.289C197.208 183.358 196.831 183.461 196.487 183.633C196.144 183.805 195.835 184.011 195.594 184.286C195.354 184.561 195.217 184.939 195.217 185.352C195.217 185.834 195.354 186.212 195.663 186.453C195.938 186.693 196.281 186.831 196.659 186.831C197.105 186.831 197.552 186.693 198.032 186.418C198.479 186.143 198.822 185.765 199.028 185.249C199.097 185.111 199.131 184.974 199.2 184.871C199.234 184.733 199.303 184.63 199.337 184.458C199.372 184.32 199.406 184.149 199.406 183.942C199.406 183.736 199.44 183.495 199.44 183.186H198.547Z" fill="#002D5D"/>
<path d="M207.373 182.051C207.647 182.188 207.922 182.326 208.197 182.498C208.471 182.67 208.712 182.842 208.952 183.048C209.192 183.254 209.364 183.53 209.501 183.839C209.639 184.148 209.742 184.527 209.742 184.974C209.742 186.005 209.398 186.762 208.746 187.278C208.094 187.794 207.166 188.034 205.965 188.034C205.312 188.034 204.728 187.966 204.213 187.862C203.733 187.759 203.389 187.656 203.183 187.587V186.281C203.252 186.315 203.355 186.349 203.527 186.418C203.698 186.487 203.904 186.521 204.145 186.59C204.385 186.659 204.66 186.693 204.934 186.762C205.209 186.796 205.518 186.831 205.793 186.831C206.136 186.831 206.48 186.796 206.789 186.728C207.098 186.659 207.338 186.556 207.579 186.453C207.785 186.315 207.956 186.143 208.094 185.937C208.231 185.73 208.3 185.49 208.3 185.18C208.3 184.939 208.231 184.699 208.094 184.492C207.956 184.286 207.785 184.149 207.613 183.977C207.407 183.839 207.235 183.701 206.995 183.598C206.789 183.495 206.617 183.392 206.445 183.323L205.518 182.842C205.278 182.704 205.037 182.567 204.763 182.429C204.488 182.292 204.248 182.085 204.007 181.879C203.767 181.673 203.595 181.432 203.424 181.122C203.286 180.847 203.183 180.469 203.183 180.056C203.183 179.231 203.492 178.578 204.076 178.096C204.66 177.615 205.518 177.374 206.651 177.374C207.201 177.374 207.647 177.408 208.059 177.512C208.471 177.58 208.78 177.684 209.021 177.718V179.059C208.849 178.99 208.54 178.887 208.094 178.784C207.647 178.646 207.166 178.612 206.651 178.612C206.033 178.612 205.518 178.75 205.175 178.99C204.797 179.231 204.625 179.575 204.625 179.919C204.625 180.125 204.694 180.297 204.797 180.469C204.9 180.607 205.072 180.744 205.243 180.882C205.415 180.985 205.621 181.122 205.827 181.226C206.033 181.329 206.274 181.432 206.445 181.535L207.373 182.051Z" fill="#002D5D"/>
</g>
<defs>
<clipPath id="clip0">
<rect width="214" height="188" fill="white"/>
</clipPath>
</defs>
</svg>
